<svg xmlns="http://www.w3.org/2000/svg" viewBox="0 0 50 50"><defs><style>.cls-1{fill:#09a1a1;}.cls-2{fill:#001717;}.cls-3{fill:#015051;}.cls-4{fill:#016b6b;}.cls-5{fill:#002122;}.cls-6{fill:#013535;}</style></defs><g id="Layer_2" data-name="Layer 2"><g id="Layer_1-2" data-name="Layer 1"><rect class="cls-1" width="50" height="50" rx="7.28"/><path class="cls-2" d="M23.65,17.94h-.06V12.8l.06-.06,0,0L42.62,25l-19-7Zm0,14.12h0l19-7L23.67,37.29l0,0h-.06V32.07Z"/><path class="cls-3" d="M32.39,4.58,42.62,25,23.67,12.71h0l8.67-8ZM42.62,25,32.39,45.42l-.06-.06-8.68-8h0Z"/><path class="cls-4" d="M23.65,12.7h0l0,0H9.77l-.12,0,3.46-8.07H32.32l-8.67,8.05Zm0,0-.06.06v-.06Zm0,24.52,0,0h0l8.68,8H13.11L9.65,37.3l.11,0H23.53l.06.06v-.06Z"/><path class="cls-3" d="M23.65,18l19,7.05h0l-19,7h-.06V17.93h.06Z"/><path class="cls-4" d="M23.59,37.26v.06l-.06-.06Z"/><path class="cls-5" d="M23.59,32.07v5.19h-.06l-4-3.68Z"/><path class="cls-4" d="M23.59,32.06h0l-4,1.51L10.48,25v0l9.1-8.57,4,1.51V32.06Z"/><path class="cls-5" d="M23.59,12.8v5.13l-4-1.51Z"/><path class="cls-6" d="M23.59,12.74v.06l-4,3.62L9.77,12.74Zm-.06,24.52H9.76l9.82-3.68Z"/></g></g></svg>