<svg xmlns="http://www.w3.org/2000/svg" viewBox="0 0 50 50"><defs><style>.cls-1{fill:#2e2f3a;}.cls-2{fill:#0acf83;}.cls-3{fill:#a259ff;}.cls-4{fill:#f24e1e;}.cls-5{fill:#ff7262;}.cls-6{fill:#1abcfe;}</style></defs><g id="Layer_2" data-name="Layer 2"><g id="Layer_1-2" data-name="Layer 1"><rect class="cls-1" width="50" height="50" rx="7.28"/><path class="cls-2" d="M18.76,43.73A6.25,6.25,0,0,0,25,37.49V31.24H18.76a6.25,6.25,0,1,0,0,12.49Z"/><path class="cls-3" d="M12.51,25a6.24,6.24,0,0,1,6.25-6.24H25V31.24H18.76A6.24,6.24,0,0,1,12.51,25Z"/><path class="cls-4" d="M12.51,12.51a6.25,6.25,0,0,1,6.25-6.24H25V18.76H18.76A6.25,6.25,0,0,1,12.51,12.51Z"/><path class="cls-5" d="M25,6.27h6.24a6.25,6.25,0,1,1,0,12.49H25Z"/><path class="cls-6" d="M37.49,25a6.25,6.25,0,1,1-6.25-6.24A6.24,6.24,0,0,1,37.49,25Z"/></g></g></svg>