<svg xmlns="http://www.w3.org/2000/svg" viewBox="0 0 50 50"><defs><style>.cls-1{fill:#310000;}.cls-2{fill:#ff7f18;}</style></defs><g id="Layer_2" data-name="Layer 2"><g id="Layer_1-2" data-name="Layer 1"><rect class="cls-1" width="50" height="50" rx="7.28"/><path class="cls-2" d="M37.9,14.39a2.52,2.52,0,0,0,2.74-2.7,2.7,2.7,0,1,0-5.39,0A2.49,2.49,0,0,0,37.9,14.39Z"/><path class="cls-2" d="M40,17.37H35.86c-.24,0-.32.11-.32.32h0V38.52c0,.21.08.34.34.34H40c.26,0,.32-.1.32-.31V17.69C40.33,17.45,40.22,17.37,40,17.37Z"/><polygon class="cls-2" points="35.54 17.69 35.54 17.69 35.54 17.69 35.54 17.69"/><path class="cls-2" d="M23.22,10c0-.21-.13-.27-.31-.27H17.36c-.14,0-.21.08-.21.27a8.88,8.88,0,0,1-.27,2.19L9.37,38.47c0,.31,0,.39.27.39h3.88c.27,0,.35,0,.4-.26L16,30.67h8.46l2.16,8c.06.18.19.23.4.23h4.39c.21,0,.26-.13.21-.34ZM17.09,26.39c1.11-4.1,2.51-9.33,3.07-12.43h.05c.66,3.1,2.41,9.49,3.15,12.43Z"/></g></g></svg>