<svg xmlns="http://www.w3.org/2000/svg" viewBox="0 0 50 50"><defs><style>.cls-1{fill:#470019;}.cls-2{fill:#ff3066;}</style></defs><g id="Layer_2" data-name="Layer 2"><g id="Layer_1-2" data-name="Layer 1"><rect class="cls-1" width="50" height="50" rx="7.28"/><path class="cls-2" d="M16.4,10.09H12.32c-.21,0-.34.08-.34.34V38.66c0,.21.08.34.34.34h4.05c.29,0,.34-.08.34-.34V10.41C16.71,10.17,16.61,10.09,16.4,10.09Z"/><path class="cls-2" d="M38.31,34.87V10.3c0-.13-.05-.21-.26-.21H33.79a.25.25,0,0,0-.26.26v7a12.64,12.64,0,0,0-1.39-.05h0c-6.65,0-10.8,4.89-10.78,11.17,0,7.33,4.16,10.93,10,10.93a16,16,0,0,0,6.89-1.55c.18-.1.24-.13.24-.31A18.67,18.67,0,0,1,38.31,34.87Zm-4.78,0a4.64,4.64,0,0,1-1.86.32c-3,0-5.44-2-5.44-6.94,0-4.34,2.36-6.94,5.75-6.94a3.79,3.79,0,0,1,1.55.26Z"/></g></g></svg>