<svg xmlns="http://www.w3.org/2000/svg" viewBox="0 0 79.07 90.53"><defs><style>.cls-1{fill:none;stroke:#d8c175;stroke-miterlimit:10;}</style></defs><g id="Layer_2" data-name="Layer 2"><g id="Ebene_1" data-name="Ebene 1"><polygon class="cls-1" points="0.5 21.21 0.5 90.03 69.44 90.03 0.5 21.21"/><polygon class="cls-1" points="11.09 46.09 11.09 79.68 44.74 79.68 11.09 46.09"/><line class="cls-1" x1="0.5" y1="28.19" x2="3.59" y2="28.19"/><line class="cls-1" x1="0.5" y1="35.23" x2="3.59" y2="35.23"/><line class="cls-1" x1="0.5" y1="42.27" x2="3.59" y2="42.27"/><line class="cls-1" x1="0.5" y1="49.31" x2="3.59" y2="49.31"/><line class="cls-1" x1="0.5" y1="56.35" x2="3.59" y2="56.35"/><line class="cls-1" x1="0.5" y1="63.39" x2="3.59" y2="63.39"/><line class="cls-1" x1="0.5" y1="70.43" x2="3.59" y2="70.43"/><line class="cls-1" x1="0.5" y1="77.47" x2="3.59" y2="77.47"/><line class="cls-1" x1="0.5" y1="84.5" x2="3.59" y2="84.5"/><polyline class="cls-1" points="64.76 85.36 64.76 9.92 78.57 9.92 78.57 90.03 69.44 90.03"/><circle class="cls-1" cx="71.9" cy="15.84" r="2.05"/><line class="cls-1" x1="64.76" y1="20.53" x2="67.37" y2="20.53"/><line class="cls-1" x1="64.76" y1="25.9" x2="67.37" y2="25.9"/><line class="cls-1" x1="64.76" y1="31.5" x2="67.37" y2="31.5"/><line class="cls-1" x1="64.76" y1="36.87" x2="67.37" y2="36.87"/><line class="cls-1" x1="64.76" y1="42.24" x2="67.37" y2="42.24"/><line class="cls-1" x1="64.76" y1="47.61" x2="67.37" y2="47.61"/><line class="cls-1" x1="64.76" y1="52.98" x2="67.37" y2="52.98"/><line class="cls-1" x1="64.76" y1="58.35" x2="67.37" y2="58.35"/><line class="cls-1" x1="64.76" y1="63.99" x2="67.37" y2="63.99"/><line class="cls-1" x1="64.76" y1="69.36" x2="67.37" y2="69.36"/><line class="cls-1" x1="64.76" y1="74.73" x2="67.37" y2="74.73"/><line class="cls-1" x1="64.76" y1="80.11" x2="67.37" y2="80.11"/><line class="cls-1" x1="65.16" y1="85.78" x2="67.37" y2="85.78"/><polyline class="cls-1" points="41.44 62.08 41.44 15.11 47.99 1.19 54.45 15.2 54.45 75.06"/><line class="cls-1" x1="45.56" y1="6.34" x2="50.42" y2="6.34"/><path class="cls-1" d="M44.74,65.37V17.89s-1.05-3.05-3.3-2.78"/><path class="cls-1" d="M51.38,72.05V17.89s.16-2.05,3.07-2.78"/><path class="cls-1" d="M44.63,17.62s1.4-2.53,3.47-2.51,3.44,2.2,3.44,2.2"/></g></g></svg>