<svg xmlns="http://www.w3.org/2000/svg" viewBox="0 0 50 50"><defs><style>.cls-1{fill:#dc395f;}.cls-2{fill:#fff;}</style></defs><g id="Layer_2" data-name="Layer 2"><g id="Layer_1-2" data-name="Layer 1"><rect class="cls-1" width="50" height="50" rx="7.28"/><path class="cls-2" d="M16,15.73A2.89,2.89,0,1,0,13,12.84,2.9,2.9,0,0,0,16,15.73M9.88,31.24a10,10,0,0,0-.26,2.17c0,2.55,1.38,4.24,4.32,4.24,2.44,0,4.41-1.44,5.84-3.78l-.87,3.48h4.84l2.76-11.09c.69-2.8,2-4.26,4.06-4.26a2.41,2.41,0,0,1,2.59,2.63A5.25,5.25,0,0,1,33,26.19l-1.43,5.1a7.86,7.86,0,0,0-.3,2.16c0,2.42,1.43,4.19,4.41,4.19,2.55,0,4.58-1.64,5.7-5.58l-1.9-.73c-1,2.63-1.77,3.11-2.42,3.11s-1-.43-1-1.29a5.71,5.71,0,0,1,.22-1.34l1.38-5a10.83,10.83,0,0,0,.48-3.15c0-3.72-2.25-5.66-5-5.66-2.55,0-5.14,2.3-6.44,4.72l.95-4.34H20.25l-1,3.83h3.46l-2.13,8.52c-1.67,3.71-4.74,3.77-5.13,3.69-.63-.15-1-.39-1-1.21a8.14,8.14,0,0,1,.31-2l3.24-12.85H9.71l-1,3.83h3.41l-2.2,9"/></g></g></svg>