<svg xmlns="http://www.w3.org/2000/svg" xmlns:xlink="http://www.w3.org/1999/xlink" viewBox="0 0 50 50"><defs><style>.cls-1{fill:#4c4c4c;}.cls-2{fill:url(#linear-gradient);}.cls-3{fill:url(#radial-gradient);}.cls-4{fill:url(#linear-gradient-2);}</style><linearGradient id="linear-gradient" x1="25.21" y1="43.95" x2="25.21" y2="7.31" gradientUnits="userSpaceOnUse"><stop offset="0" stop-color="#07509d"/><stop offset="1" stop-color="#47c6f3"/></linearGradient><radialGradient id="radial-gradient" cx="25" cy="25.7" r="19.24" gradientUnits="userSpaceOnUse"><stop offset="0.95" stop-color="#f1f1f1"/><stop offset="1" stop-color="#cccbc9"/></radialGradient><linearGradient id="linear-gradient-2" x1="25.11" y1="33.8" x2="25.11" y2="17.53" gradientUnits="userSpaceOnUse"><stop offset="0"/><stop offset="0.25" stop-color="#030303"/><stop offset="0.46" stop-color="#0d0d0d"/><stop offset="0.65" stop-color="#1e1e1e"/><stop offset="0.82" stop-color="#363536"/><stop offset="0.99" stop-color="#545354"/><stop offset="1" stop-color="#565556"/></linearGradient></defs><g id="Layer_2" data-name="Layer 2"><g id="Layer_1-2" data-name="Layer 1"><rect class="cls-1" width="50" height="50" rx="7.28"/><circle class="cls-2" cx="25.21" cy="25.63" r="18.32"/><path class="cls-3" d="M25,6.46A19.25,19.25,0,1,0,44.24,25.7,19.24,19.24,0,0,0,25,6.46Zm9.11,4.17a16.82,16.82,0,0,1,6.07,6.1,17.35,17.35,0,0,1,2.18,5.87A1.4,1.4,0,0,1,42,23.9a29.74,29.74,0,0,1-7,5.82.31.31,0,0,1-.46-.35A30.24,30.24,0,0,0,33.66,11,.31.31,0,0,1,34.11,10.63Zm-17.52-.28a16.79,16.79,0,0,1,8.31-2.2,17.07,17.07,0,0,1,6.17,1,1.39,1.39,0,0,1,1,1,29.63,29.63,0,0,1,1.55,9,.31.31,0,0,1-.53.23,30.12,30.12,0,0,0-16.35-8.41A.31.31,0,0,1,16.59,10.35Zm-9,15a16.83,16.83,0,0,1,2.24-8.31,17.48,17.48,0,0,1,4-4.82,1.41,1.41,0,0,1,1.32-.33,29.21,29.21,0,0,1,8.52,3.13.31.31,0,0,1-.07.57,30.14,30.14,0,0,0-15.45,10A.31.31,0,0,1,7.59,25.39ZM16.11,40.7A16.75,16.75,0,0,1,10,34.6a16.94,16.94,0,0,1-2.18-5.87,1.39,1.39,0,0,1,.36-1.3,29.79,29.79,0,0,1,7-5.82.31.31,0,0,1,.46.35,30.09,30.09,0,0,0,.9,18.36A.31.31,0,0,1,16.11,40.7ZM33.62,41a16.79,16.79,0,0,1-8.31,2.2,17.07,17.07,0,0,1-6.17-1,1.4,1.4,0,0,1-.95-1,29.94,29.94,0,0,1-1.55-9,.31.31,0,0,1,.53-.23A30.15,30.15,0,0,0,33.52,40.4.31.31,0,0,1,33.62,41Zm2.77-1.91a1.4,1.4,0,0,1-1.31.33,29.17,29.17,0,0,1-8.53-3.13.31.31,0,0,1,.07-.57,30.1,30.1,0,0,0,15.45-10,.31.31,0,0,1,.55.2,16.73,16.73,0,0,1-2.24,8.31A17.13,17.13,0,0,1,36.39,39.07Z"/><path class="cls-4" d="M27.34,17.82a1.38,1.38,0,0,0-1.18-.25,29.09,29.09,0,0,0-6.73,2.24,1.36,1.36,0,0,0-.8.9,28.86,28.86,0,0,0-1.44,6.94,1.39,1.39,0,0,0,.38,1.15,28.94,28.94,0,0,0,5.3,4.71,1.39,1.39,0,0,0,1.18.25,29.17,29.17,0,0,0,6.74-2.24,1.38,1.38,0,0,0,.8-.9A29.33,29.33,0,0,0,33,23.68a1.39,1.39,0,0,0-.38-1.15A28.94,28.94,0,0,0,27.34,17.82Z"/></g></g></svg>