<svg xmlns="http://www.w3.org/2000/svg" xmlns:xlink="http://www.w3.org/1999/xlink" viewBox="0 0 50 50"><defs><style>.cls-1{fill:#e7f3f3;}.cls-2{fill:url(#linear-gradient);}.cls-3{fill:url(#linear-gradient-2);}.cls-4{fill:url(#linear-gradient-3);}.cls-5{fill:url(#linear-gradient-4);}.cls-6{fill:url(#linear-gradient-5);}.cls-7{fill:url(#linear-gradient-6);}.cls-8{fill:url(#linear-gradient-7);}</style><linearGradient id="linear-gradient" x1="24.55" y1="300.61" x2="45.98" y2="296.44" gradientTransform="translate(0 -276.91)" gradientUnits="userSpaceOnUse"><stop offset="0" stop-color="#0f6067"/><stop offset="0.5" stop-color="#05abac"/><stop offset="1" stop-color="#58bec4"/></linearGradient><linearGradient id="linear-gradient-2" x1="39.55" y1="320.37" x2="42.62" y2="285.35" gradientTransform="translate(0 -276.91)" gradientUnits="userSpaceOnUse"><stop offset="0" stop-color="#117c83"/><stop offset="0.5" stop-color="#21b5b5"/><stop offset="1" stop-color="#7ed4d4"/></linearGradient><linearGradient id="linear-gradient-3" x1="21.82" y1="285.94" x2="13.74" y2="310.81" gradientTransform="translate(0 -276.91)" gradientUnits="userSpaceOnUse"><stop offset="0" stop-color="#9accd3"/><stop offset="0.5" stop-color="#72aeb3"/><stop offset="1" stop-color="#317d7f"/></linearGradient><linearGradient id="linear-gradient-4" x1="4.23" y1="314.33" x2="17.79" y2="309.92" gradientTransform="translate(0 -276.91)" gradientUnits="userSpaceOnUse"><stop offset="0" stop-color="#21626e"/><stop offset="0.5" stop-color="#157c84"/><stop offset="1" stop-color="#03a3a5"/></linearGradient><linearGradient id="linear-gradient-5" x1="14.83" y1="294.77" x2="-2.53" y2="310.96" gradientTransform="translate(0 -276.91)" gradientUnits="userSpaceOnUse"><stop offset="0" stop-color="#0b7c81"/><stop offset="0.5" stop-color="#068d90"/><stop offset="1" stop-color="#16b1b1"/></linearGradient><linearGradient id="linear-gradient-6" x1="30.89" y1="314.52" x2="39.76" y2="307.34" gradientTransform="translate(0 -276.91)" gradientUnits="userSpaceOnUse"><stop offset="0" stop-color="#0a8a8f"/><stop offset="0.5" stop-color="#0f7c82"/><stop offset="1" stop-color="#1a5964"/></linearGradient><linearGradient id="linear-gradient-7" x1="44.31" y1="305.69" x2="34.88" y2="299.79" gradientTransform="translate(0 -276.91)" gradientUnits="userSpaceOnUse"><stop offset="0" stop-color="#256a77"/><stop offset="0.5" stop-color="#0d9499"/><stop offset="1" stop-color="#06a0a2"/></linearGradient></defs><g id="Layer_2" data-name="Layer 2"><g id="Layer_1-2" data-name="Layer 1"><rect class="cls-1" width="50" height="50" rx="7.28"/><path class="cls-2" d="M32.53,8.55H43.85L28.72,36.48s-2.54-7.4-3.64-10"/><path class="cls-3" d="M35.32,43.08h8.53V8.55C43.84,26.6,36.25,43.08,35.32,43.08Z"/><path class="cls-4" d="M28.72,36.48h-7L6.15,8.55c2.76-.35,8.26-.83,11-1.05Z"/><path class="cls-5" d="M15.16,25.45c-2.33,9.22-9,17.91-9,17.9,7.75,0,9.41-1.12,9.41-1.72V26.15Z"/><path class="cls-6" d="M6.15,8.55v34.8c4.24-7,6.71-11.58,8.89-18.11C9.66,15.72,6.15,8.55,6.15,8.55Z"/><polyline class="cls-7" points="34.74 41.72 35.32 43.08 35.32 24.95 34.74 25.93"/><path class="cls-8" d="M35.29,25V43l0,0c.6,0,8.52-19.52,8.52-34.53C43.84,8.55,39,18.62,35.29,25Z"/></g></g></svg>