<svg xmlns="http://www.w3.org/2000/svg" viewBox="0 0 50 50"><defs><style>.cls-1{fill:#001e36;}.cls-2{fill:#31a8ff;}</style></defs><g id="Layer_2" data-name="Layer 2"><g id="Layer_1-2" data-name="Layer 1"><rect class="cls-1" width="50" height="50" rx="7.28"/><path class="cls-2" d="M9.81,35.62V14c0-.15.06-.24.21-.24.36,0,.69,0,1.18,0l1.6,0,1.83,0c.65,0,1.28,0,1.91,0a12.44,12.44,0,0,1,4.34.65A7.44,7.44,0,0,1,23.69,16a6.64,6.64,0,0,1,1.54,2.39,8,8,0,0,1,.48,2.74,7.53,7.53,0,0,1-1.26,4.48,7.22,7.22,0,0,1-3.39,2.57,13.74,13.74,0,0,1-4.73.71c-.5,0-.84,0-1,0s-.51,0-.91,0V35.6a.26.26,0,0,1-.23.29H10.06c-.17,0-.25-.08-.25-.27Zm4.58-17.83v7.07c.3,0,.57.05.83.05h1.11a8,8,0,0,0,2.42-.38,3.67,3.67,0,0,0,1.73-1.12,3.24,3.24,0,0,0,.65-2.16,3.46,3.46,0,0,0-.49-1.88,3,3,0,0,0-1.47-1.2,6.29,6.29,0,0,0-2.48-.42c-.55,0-1,0-1.43,0a5.18,5.18,0,0,0-.87,0Zm24.45,5.79a7,7,0,0,0-2-.71,10.86,10.86,0,0,0-2.35-.28,4.07,4.07,0,0,0-1.26.15,1.08,1.08,0,0,0-.66.42,1.18,1.18,0,0,0-.17.57,1,1,0,0,0,.21.55,2.33,2.33,0,0,0,.72.56c.48.26,1,.49,1.49.7A15.25,15.25,0,0,1,38,27.07a4.91,4.91,0,0,1,1.67,1.75A4.63,4.63,0,0,1,40.19,31a4.88,4.88,0,0,1-.82,2.8A5.28,5.28,0,0,1,37,35.66a9.65,9.65,0,0,1-3.8.67,14.54,14.54,0,0,1-2.87-.27,8.47,8.47,0,0,1-2.14-.68A.39.39,0,0,1,28,35V31.32a.25.25,0,0,1,.08-.19.16.16,0,0,1,.19,0,9.06,9.06,0,0,0,2.61,1,9.8,9.8,0,0,0,2.48.31,4,4,0,0,0,1.75-.29,1,1,0,0,0,.57-.89,1.13,1.13,0,0,0-.51-.84,9.15,9.15,0,0,0-2.06-1,13.12,13.12,0,0,1-3-1.51,5.41,5.41,0,0,1-1.6-1.79A4.6,4.6,0,0,1,28,24a5,5,0,0,1,.71-2.54,5.25,5.25,0,0,1,2.21-1.94,8.24,8.24,0,0,1,3.73-.73,19.19,19.19,0,0,1,2.61.18,7.8,7.8,0,0,1,1.81.49.38.38,0,0,1,.21.19,1.09,1.09,0,0,1,0,.25v3.43a.25.25,0,0,1-.11.21.59.59,0,0,1-.38,0Z"/></g></g></svg>