<svg xmlns="http://www.w3.org/2000/svg" viewBox="0 0 91 73.47"><defs><style>.cls-1,.cls-2{fill:none;stroke:#d8c175;stroke-miterlimit:10;}.cls-2{stroke-width:0.75px;}</style></defs><g id="Layer_2" data-name="Layer 2"><g id="Ebene_1" data-name="Ebene 1"><rect class="cls-1" x="65.83" y="30.04" width="24.67" height="42.94" rx="4.44"/><rect class="cls-1" x="74.92" y="31.4" width="6.24" height="1.46" rx="0.44"/><circle class="cls-1" cx="78.18" cy="70.43" r="1.59"/><rect class="cls-1" x="67.9" y="34.02" width="20.38" height="33.8" rx="2.76"/><line class="cls-2" x1="67.9" y1="39.31" x2="88.27" y2="39.31"/><rect class="cls-2" x="70.47" y="42.23" width="15.44" height="9.67"/><rect class="cls-2" x="70.47" y="55.45" width="15.44" height="9.11"/><path class="cls-1" d="M65.83,58.92H4A3.51,3.51,0,0,1,.5,55.41V4A3.51,3.51,0,0,1,4,.5h76.3A3.51,3.51,0,0,1,83.82,4V30"/><path class="cls-1" d="M65.83,52.8H9.48a2.9,2.9,0,0,1-3-2.8V9a2.9,2.9,0,0,1,3-2.8H74.53a2.9,2.9,0,0,1,3,2.8V30"/><polyline class="cls-2" points="65.6 38.1 54.43 38.1 54.43 49.05 65.83 49.05"/><rect class="cls-2" x="10.52" y="10.52" width="63.57" height="4.73"/><rect class="cls-2" x="10.52" y="18.17" width="19.47" height="30.88"/><rect class="cls-2" x="32.49" y="38.21" width="19.2" height="10.83"/><polyline class="cls-2" points="73.72 30.04 73.72 18.17 32.49 18.17 32.49 34.58 65.83 34.58"/><rect class="cls-1" x="21.37" y="69.5" width="41.38" height="3.13" rx="0.94"/><line class="cls-1" x1="29.22" y1="69.5" x2="29.22" y2="58.92"/><line class="cls-1" x1="55.1" y1="69.5" x2="55.1" y2="58.92"/></g></g></svg>