<svg xmlns="http://www.w3.org/2000/svg" viewBox="0 0 50 50"><defs><style>.cls-1{fill:#470137;}.cls-2{fill:#ff61f6;}</style></defs><g id="Layer_2" data-name="Layer 2"><g id="Layer_1-2" data-name="Layer 1"><rect class="cls-1" width="50" height="50" rx="7.28"/><path class="cls-2" d="M26.23,15.51l-6,9.86,6.38,10.46a.34.34,0,0,1,0,.24c0,.08-.1,0-.22,0H21.89c-.32,0-.54,0-.68-.22-.42-.84-.86-1.65-1.28-2.49s-.87-1.65-1.35-2.51-1-1.71-1.44-2.59h0c-.42.86-.87,1.71-1.33,2.57s-.92,1.71-1.36,2.55S13.5,35.11,13,35.93c-.08.2-.24.22-.46.22H8.19c-.08,0-.13,0-.13-.06a.32.32,0,0,1,0-.22l6.2-10.16-6-10.22c-.06-.08-.08-.16,0-.2a.23.23,0,0,1,.2-.08h4.53a1.18,1.18,0,0,1,.28,0,.57.57,0,0,1,.2.18c.37.85.81,1.71,1.27,2.57s.94,1.69,1.44,2.53.91,1.67,1.33,2.53h0c.42-.88.86-1.74,1.3-2.57s.89-1.68,1.35-2.51.9-1.7,1.34-2.51a.34.34,0,0,1,.12-.2.38.38,0,0,1,.26,0h4.2a.18.18,0,0,1,.22.14s0,.1-.06.14Zm9.21,21a9.9,9.9,0,0,1-4.29-.9,7,7,0,0,1-3-2.71,8.67,8.67,0,0,1-1.09-4.54,8.12,8.12,0,0,1,4.26-7.29,10.18,10.18,0,0,1,5-1.16,3.57,3.57,0,0,1,.42,0l.62,0v-6.3c0-.14.06-.22.2-.22h4a.18.18,0,0,1,.2.14v19c0,.36,0,.76,0,1.2s.06.82.08,1.16a.32.32,0,0,1-.2.31,15.1,15.1,0,0,1-3.24,1,17.62,17.62,0,0,1-3.07.28Zm2-4V23.78a5.12,5.12,0,0,0-.54-.1c-.22,0-.44,0-.66,0a5,5,0,0,0-2.25.51,4.45,4.45,0,0,0-1.69,1.48,4.4,4.4,0,0,0-.66,2.53,5.52,5.52,0,0,0,.34,2.05,3.91,3.91,0,0,0,.9,1.42,3.33,3.33,0,0,0,1.35.79,5.22,5.22,0,0,0,1.65.26c.3,0,.58,0,.84,0a1.75,1.75,0,0,0,.72-.1Z"/></g></g></svg>